<?xml version="1.0" encoding="UTF-8" standalone="no"?>
<!-- Created with Inkscape (http://www.inkscape.org/) -->
<svg
   xmlns:dc="http://purl.org/dc/elements/1.1/"
   xmlns:cc="http://creativecommons.org/ns#"
   xmlns:rdf="http://www.w3.org/1999/02/22-rdf-syntax-ns#"
   xmlns:svg="http://www.w3.org/2000/svg"
   xmlns="http://www.w3.org/2000/svg"
   xmlns:sodipodi="http://sodipodi.sourceforge.net/DTD/sodipodi-0.dtd"
   xmlns:inkscape="http://www.inkscape.org/namespaces/inkscape"
   width="110"
   height="110"
   id="svg2661"
   sodipodi:version="0.32"
   inkscape:version="0.46"
   version="1.0"
   sodipodi:docname="gear 7.svg"
   inkscape:output_extension="org.inkscape.output.svg.inkscape">
  <defs
     id="defs2663">
    <inkscape:perspective
       sodipodi:type="inkscape:persp3d"
       inkscape:vp_x="0 : 526.18109 : 1"
       inkscape:vp_y="0 : 1000 : 0"
       inkscape:vp_z="744.09448 : 526.18109 : 1"
       inkscape:persp3d-origin="372.04724 : 350.78739 : 1"
       id="perspective2669" />
  </defs>
  <sodipodi:namedview
     id="base"
     pagecolor="#ffffff"
     bordercolor="#666666"
     borderopacity="1.0"
     gridtolerance="10000"
     guidetolerance="10"
     objecttolerance="10"
     inkscape:pageopacity="0.0"
     inkscape:pageshadow="2"
     inkscape:zoom="0.35"
     inkscape:cx="375"
     inkscape:cy="520"
     inkscape:document-units="px"
     inkscape:current-layer="layer1"
     showgrid="false"
     inkscape:window-width="672"
     inkscape:window-height="718"
     inkscape:window-x="600"
     inkscape:window-y="249" />
  <metadata
     id="metadata2666">
    <rdf:RDF>
      <cc:Work
         rdf:about="">
        <dc:format>image/svg+xml</dc:format>
        <dc:type
           rdf:resource="http://purl.org/dc/dcmitype/StillImage" />
        <cc:license
           rdf:resource="http://creativecommons.org/licenses/by-sa/3.0/" />
        <dc:creator>
          <cc:Agent>
            <dc:title>eugrafia</dc:title>
          </cc:Agent>
        </dc:creator>
      </cc:Work>
      <cc:License
         rdf:about="http://creativecommons.org/licenses/by-sa/3.0/">
        <cc:permits
           rdf:resource="http://creativecommons.org/ns#Reproduction" />
        <cc:permits
           rdf:resource="http://creativecommons.org/ns#Distribution" />
        <cc:requires
           rdf:resource="http://creativecommons.org/ns#Notice" />
        <cc:requires
           rdf:resource="http://creativecommons.org/ns#Attribution" />
        <cc:permits
           rdf:resource="http://creativecommons.org/ns#DerivativeWorks" />
        <cc:requires
           rdf:resource="http://creativecommons.org/ns#ShareAlike" />
      </cc:License>
    </rdf:RDF>
  </metadata>
  <g
     inkscape:label="Layer 1"
     inkscape:groupmode="layer"
     id="layer1"
     transform="translate(-559.28571,-488.79075)">
    <g
       id="g27"
       transform="translate(491.78471,169.30575)">
      <path
         d="M 176.984,366.951 L 167.54,363.794 C 166.386,358.918 164.47,354.338 161.911,350.194 L 166.353,341.29 C 163.304,337.269 159.715,333.681 155.695,330.633 L 146.79,335.075 C 142.647,332.515 138.067,330.597 133.192,329.444 L 130.035,320.001 C 127.571,319.664 125.057,319.485 122.5,319.485 C 119.943,319.485 117.43,319.664 114.965,320.001 L 111.808,329.444 C 106.933,330.597 102.353,332.515 98.209,335.075 L 89.305,330.633 C 85.284,333.681 81.696,337.269 78.649,341.29 L 83.091,350.194 C 80.531,354.338 78.613,358.918 77.461,363.794 L 68.017,366.951 C 67.68,369.414 67.501,371.929 67.501,374.485 C 67.501,377.041 67.679,379.556 68.017,382.019 L 77.461,385.176 C 78.614,390.052 80.531,394.632 83.09,398.776 L 78.65,407.68 C 81.697,411.701 85.285,415.289 89.306,418.337 L 98.21,413.895 C 102.354,416.455 106.934,418.373 111.809,419.526 L 114.966,428.968 C 117.43,429.306 119.944,429.485 122.501,429.485 C 125.058,429.485 127.571,429.306 130.036,428.968 L 133.193,419.526 C 138.068,418.373 142.648,416.455 146.791,413.896 L 155.696,418.337 C 159.716,415.289 163.305,411.701 166.352,407.68 L 161.912,398.776 C 164.471,394.632 166.387,390.052 167.541,385.176 L 176.985,382.019 C 177.322,379.556 177.501,377.041 177.501,374.485 C 177.501,371.929 177.322,369.414 176.984,366.951 z M 122.5,412.075 C 101.74,412.075 84.91,395.246 84.91,374.485 C 84.91,353.724 101.74,336.895 122.5,336.895 C 143.26,336.895 160.09,353.724 160.09,374.485 C 160.09,395.246 143.26,412.075 122.5,412.075 z"
         id="path29" />
    </g>
  </g>
</svg>
